<?xml version="1.0" encoding="utf-8"?>


<svg version="1.1" id="Icons" xmlns="http://www.w3.org/2000/svg" xmlns:xlink="http://www.w3.org/1999/xlink" 
	 viewBox="0 0 32 32" xml:space="preserve">
<style type="text/css">
	.st0{fill:none;stroke:#fff;stroke-width:2;stroke-linecap:round;stroke-linejoin:round;stroke-miterlimit:10;}
	.st1{fill:none;stroke:#fff;stroke-width:2;stroke-linejoin:round;stroke-miterlimit:10;}
</style>
<path class="st0" d="M7,8h16c1.1,0,2,0.9,2,2v17c0,1.1-0.9,2-2,2H9c-1.1,0-2-0.9-2-2V8z"/>
<path class="st0" d="M18.7,19.3c-1.5,0-2.7-1.2-2.7-2.7c0-1,0.6-1.9,1.5-2.4C17,14.1,16.5,14,16,14c-2.2,0-4,1.8-4,4s1.8,4,4,4
	c1.8,0,3.4-1.3,3.8-3C19.5,19.2,19.1,19.3,18.7,19.3z"/>
<polyline class="st0" points="7,8 22,3 22,8 "/>
</svg>